<svg version="1.1" id="Layer_1" xmlns="http://www.w3.org/2000/svg" xmlns:xlink="http://www.w3.org/1999/xlink" x="0px" y="0px"
	 width="100%" viewBox="0 0 500 500" enable-background="new 0 0 500 500" xml:space="preserve">
<path fill="#FFFFFF" opacity="1.000000" stroke="none" 
	d="
M279.000000,501.000000 
	C186.000015,501.000000 93.500046,501.000000 1.000050,501.000000 
	C1.000033,334.333405 1.000033,167.666794 1.000017,1.000139 
	C167.666565,1.000093 334.333130,1.000093 500.999756,1.000046 
	C500.999847,167.666519 500.999847,334.333038 500.999939,500.999786 
	C427.166656,501.000000 353.333344,501.000000 279.000000,501.000000 
M228.195068,198.894394 
	C226.488724,199.279922 224.782379,199.665451 222.557816,199.676315 
	C222.084122,198.745255 221.610443,197.814194 220.736923,196.426056 
	C220.093719,196.905487 219.450531,197.384918 218.216400,197.928513 
	C217.820587,197.945892 217.424789,197.963272 216.497940,198.229034 
	C216.263489,198.754044 216.029053,199.279068 215.172714,200.293243 
	C214.154022,201.511047 213.135315,202.728867 211.903671,204.253464 
	C210.795639,207.221329 209.687622,210.189209 207.578995,213.076523 
	C200.847641,213.064087 194.045822,212.246048 187.709229,215.628571 
	C183.764877,217.734116 182.305161,220.950882 183.236694,225.095123 
	C184.933258,232.642868 181.911041,238.364914 174.178925,239.965256 
	C173.129852,240.006104 172.080795,240.046967 170.534790,239.501312 
	C168.756790,239.475372 166.947418,239.225876 165.207352,239.470123 
	C161.597122,239.976868 159.686508,237.941849 159.282028,234.964890 
	C158.845200,231.749725 161.224701,230.090347 164.236832,230.080139 
	C166.850281,230.071274 169.459259,230.857315 172.081772,230.944595 
	C176.660095,231.096954 179.551315,228.106110 180.068130,224.213181 
	C180.383545,221.837173 178.704712,218.305344 176.760895,216.685333 
	C170.603043,211.553223 163.239838,212.162445 156.019699,214.100677 
	C154.542664,214.497177 153.384888,216.082977 152.055405,217.089371 
	C152.055405,217.089371 152.098267,217.108932 151.354980,217.057144 
	C147.460480,220.876663 143.565979,224.696167 139.622131,228.564056 
	C132.984955,224.529678 132.984955,224.529678 137.836075,218.621780 
	C140.944427,214.836349 140.684540,211.500427 137.136093,207.616348 
	C135.663239,206.004181 134.398575,204.201843 133.851944,202.568253 
	C156.636902,202.573227 179.421906,202.558701 202.206772,202.607315 
	C205.127136,202.613556 207.283051,202.319321 205.528336,198.417404 
	C172.553513,198.417404 139.628494,198.398544 106.703865,198.500488 
	C105.617233,198.503845 104.534401,199.734070 103.449799,200.392410 
	C104.624352,201.121597 105.718178,202.134628 106.996704,202.498230 
	C108.218063,202.845612 109.631668,202.516983 110.916740,203.152588 
	C110.237190,204.001205 109.729378,205.150513 108.851501,205.651901 
	C100.100067,210.650299 98.536949,224.139328 105.047668,231.142242 
	C106.142303,232.319641 106.974205,233.741302 108.046562,235.213531 
	C107.237068,235.929581 106.704697,236.567535 106.031219,236.968536 
	C102.242226,239.224655 99.492279,242.647095 101.274002,246.786011 
	C102.533417,249.711639 105.805679,252.122803 108.712814,253.882111 
	C111.307945,255.452621 114.579857,256.215393 117.648605,256.633118 
	C126.093422,257.782623 133.887466,256.574249 139.505508,249.168198 
	C141.318283,246.778519 143.153198,246.247665 145.709152,248.611496 
	C148.600571,251.285568 151.609543,254.547852 155.158752,255.650009 
	C163.136581,258.127380 171.263443,257.988403 178.075195,251.922455 
	C180.804352,249.492096 182.553955,250.432602 185.274597,252.451630 
	C188.286438,254.686798 192.293655,256.634674 195.925858,256.742706 
	C201.971298,256.922455 208.051590,255.399414 214.141434,254.874527 
	C216.641602,254.659042 219.542435,254.475342 221.667633,255.503601 
	C225.874847,257.539246 229.369446,257.481659 232.465485,253.964264 
	C234.419632,251.744125 236.480347,251.620697 238.554840,253.349274 
	C243.721893,257.654694 249.434143,257.688049 255.494492,255.949066 
	C256.907684,255.543564 258.627319,254.792709 259.808929,255.242905 
	C264.440216,257.007477 267.758270,254.855377 271.278473,252.389252 
	C272.293518,251.678131 274.253357,251.728424 275.563599,252.132141 
	C280.122375,253.536804 284.474182,255.883453 289.111298,256.702637 
	C296.809937,258.062683 304.289337,256.504456 309.587433,250.362640 
	C312.310303,247.206146 313.923187,247.879578 315.782318,250.372299 
	C318.512756,254.033310 322.001862,256.624451 326.471649,256.795166 
	C332.756378,257.035065 339.068726,256.459534 345.371002,256.391296 
	C347.059418,256.373047 349.254517,256.404877 350.289276,257.389069 
	C351.134277,258.192810 351.282806,261.095123 350.513489,261.912689 
	C349.329956,263.170380 347.134949,263.835541 345.296326,264.017761 
	C343.410461,264.204620 341.437164,263.508789 339.502136,263.199310 
	C339.277954,263.673889 339.053772,264.148438 338.829559,264.623016 
	C340.233093,265.426178 341.589569,266.333771 343.056915,266.995422 
	C344.017883,267.428741 345.950195,267.307281 346.064484,267.773376 
	C347.324463,272.912720 350.226562,270.178955 352.751465,269.329895 
	C354.085327,268.881348 355.428009,268.459137 356.849670,268.807678 
	C354.480011,280.024994 354.480408,280.024078 364.936035,284.508331 
	C366.613800,285.227936 368.238953,286.120544 369.976990,286.632477 
	C371.235229,287.003052 372.639954,286.876190 374.887482,286.960785 
	C378.649841,286.609070 382.412231,286.257355 386.723602,286.153198 
	C387.482147,286.408386 388.240723,286.663574 389.402130,287.520111 
	C399.119385,286.310791 408.890594,285.403473 418.516602,283.683441 
	C420.974915,283.244171 426.689392,282.665863 422.746307,276.343018 
	C422.065887,274.431274 421.385468,272.519562 420.879944,269.883667 
	C419.933014,268.578461 418.986084,267.273254 418.032440,265.200134 
	C418.529297,264.257660 418.793427,262.817780 419.562805,262.457794 
	C423.118225,260.794281 422.750336,258.590546 420.562195,255.482513 
	C419.724030,255.085815 418.885834,254.689102 418.041016,253.410217 
	C418.009583,249.637665 417.978149,245.865112 417.663879,241.520355 
	C417.111206,240.684479 416.558533,239.848602 416.809296,239.016113 
	C417.496216,237.582672 418.183136,236.149231 419.398132,234.287308 
	C420.278259,233.683487 421.158356,233.079666 422.010315,231.697250 
	C421.692932,228.884384 421.375549,226.071518 421.628906,222.881210 
	C421.313721,222.409485 421.103333,221.681183 420.668091,221.503479 
	C408.958710,216.722763 397.100800,212.786301 383.816467,214.865952 
	C382.841064,214.291565 381.875488,213.239578 380.888641,213.219193 
	C373.729309,213.071365 366.565094,213.097427 359.404449,213.203171 
	C358.928955,213.210190 358.469788,214.323517 357.427521,215.038712 
	C357.037872,215.072617 356.648193,215.106522 355.490875,215.074265 
	C353.360413,214.740494 351.114929,214.727768 349.120850,214.013351 
	C342.898651,211.784164 336.656616,213.769485 335.559906,220.113434 
	C335.001892,223.341339 335.408600,226.729965 334.929565,229.979645 
	C334.584930,232.317673 333.375427,236.541519 332.759430,236.504105 
	C328.286316,236.232361 330.384583,232.422485 330.032867,229.975266 
	C329.428711,225.771530 329.840973,221.260803 328.448700,217.372299 
	C326.738220,212.595108 320.972778,211.729370 317.601868,215.371750 
	C317.157593,215.620499 316.713318,215.869232 315.458801,216.071381 
	C310.855408,216.977692 312.479767,220.725922 311.930267,223.557449 
	C311.709412,224.695602 310.958008,226.333008 310.108093,226.581802 
	C309.212555,226.843979 307.489655,225.997238 306.910248,225.119019 
	C306.375397,224.308319 306.740753,222.785599 306.980957,221.633041 
	C307.095520,221.083328 307.849091,220.673492 308.297119,220.185547 
	C312.648163,215.446899 312.546295,209.157349 306.728638,206.581833 
	C300.793854,203.954483 293.855591,203.593842 287.393280,201.393082 
	C288.302307,199.779419 289.211365,198.165741 290.258026,196.307755 
	C279.711639,196.843811 272.080750,201.335587 266.160400,210.031982 
	C268.704071,209.806229 270.767487,209.623108 272.848785,209.438400 
	C273.897156,211.052277 274.953491,212.678421 276.063538,214.584381 
	C276.063538,214.584381 276.079041,214.868896 275.294281,215.103043 
	C272.874023,219.814453 273.163177,226.036224 276.810669,229.108154 
	C280.021667,231.812469 283.791412,234.219482 287.721161,235.599075 
	C291.492035,236.922882 292.468719,238.536469 290.237305,242.023712 
	C287.790619,241.022583 285.417786,239.625397 282.872894,239.151123 
	C280.985504,238.799408 278.874695,239.646545 276.032837,239.977905 
	C272.014862,240.526306 270.682526,238.581345 270.963318,234.796844 
	C271.158722,232.163986 271.568024,229.332199 270.835388,226.905121 
	C270.088104,224.429382 268.061768,222.339706 266.105560,219.661346 
	C260.408783,214.441757 246.757523,213.200790 241.126724,217.638275 
	C240.036804,218.497208 239.814972,220.457672 238.605682,222.317108 
	C239.408569,225.226654 240.211472,228.136200 240.723297,231.560379 
	C239.917664,232.411942 239.112030,233.263489 237.427811,234.046936 
	C234.428421,234.306198 233.911713,232.589645 233.962463,230.047699 
	C234.076248,224.347107 233.978439,218.642578 234.008820,212.939880 
	C234.019867,210.866623 234.155151,208.790588 230.990463,208.244980 
	C230.938736,207.515076 230.887024,206.785156 231.214859,205.434250 
	C233.184250,204.138550 235.153641,202.842850 237.503876,200.965942 
	C237.138565,199.928513 237.064163,198.379852 236.342270,197.969086 
	C235.150085,197.290695 233.539917,197.346848 231.484741,196.797867 
	C229.653229,196.152206 227.821716,195.506546 225.990204,194.860886 
	C225.866684,195.327560 225.743179,195.794235 225.619659,196.260910 
	C226.725830,197.094574 227.832001,197.928238 228.195068,198.894394 
M130.365112,266.658722 
	C127.971268,265.385986 125.577431,264.113251 123.183586,262.840515 
	C122.755081,263.310089 122.326576,263.779663 121.898079,264.249237 
	C122.235619,267.262756 122.573158,270.276276 122.811295,272.402344 
	C126.248344,270.869232 128.716675,269.768219 131.796234,269.342438 
	C135.801300,270.378448 141.363297,267.623627 141.199585,265.705414 
	C141.149338,265.773102 140.717377,266.924072 140.080170,267.051910 
	C139.453110,267.177704 138.418533,266.424408 137.907837,265.782379 
	C135.442642,262.683197 133.196655,262.631073 130.365112,266.658722 
M334.500580,267.808807 
	C335.375702,268.125061 336.250824,268.441345 337.482910,268.886597 
	C337.063812,267.057678 336.744446,265.664001 336.353638,263.958466 
	C335.189270,265.412506 334.278351,266.550079 333.297211,267.775299 
	C332.203552,266.404663 331.465820,264.663544 330.679932,264.641510 
	C327.816254,264.561279 324.939392,265.238586 322.061981,265.284576 
	C318.777832,265.337036 315.487793,265.020050 312.694519,264.887115 
	C314.308167,265.396637 316.605347,265.868103 318.672333,266.832703 
	C321.969238,268.371246 324.853455,273.009644 328.755280,267.649353 
	C328.997955,267.316010 330.370544,267.856415 331.222137,267.900696 
	C332.083801,267.945557 332.951294,267.878998 334.500580,267.808807 
M266.891907,266.837097 
	C266.667236,265.887360 266.442566,264.937653 266.217896,263.987915 
	C264.095459,264.499847 261.973053,265.011749 259.689819,265.562469 
	C259.651184,265.201141 259.613617,264.386688 259.465820,263.592712 
	C259.303162,262.719147 259.039185,261.864380 259.013275,261.762695 
	C255.779541,263.082886 252.819000,264.291565 249.513763,265.640961 
	C249.342377,264.924500 249.571732,265.348145 249.507248,265.720947 
	C249.355820,266.596313 249.055206,267.445221 248.838669,268.310760 
	C248.808044,268.433228 248.909988,268.588898 248.663116,267.735504 
	C253.462708,272.003510 258.622986,267.837372 263.342102,269.896851 
	C263.893616,270.137543 265.390076,268.212860 266.891907,266.837097 
M303.734314,268.797455 
	C305.437653,268.936920 307.140961,269.076416 308.844269,269.215881 
	C308.659760,267.000488 308.475220,264.785095 308.402466,263.911621 
	C303.029297,263.911621 299.137878,263.911621 294.873352,263.911621 
	C295.026428,267.130615 295.165863,270.062897 295.309753,273.088806 
	C298.338531,271.224609 300.705658,269.767639 303.734314,268.797455 
M234.547668,270.074036 
	C235.438293,268.606781 236.328918,267.139526 237.219543,265.672302 
	C237.162292,275.121521 243.398788,265.957214 245.140945,268.756897 
	C243.363708,266.219727 241.586472,263.682587 239.490341,260.690186 
	C237.999222,263.476074 236.588837,266.081909 233.418823,262.102783 
	C232.246902,264.182617 230.958710,265.807800 230.534027,267.633820 
	C230.410019,268.166962 232.746475,269.272339 234.547668,270.074036 
M150.123795,265.370361 
	C149.868591,263.960022 149.613388,262.549683 149.306549,260.853912 
	C147.212372,262.462860 145.801956,263.546509 144.679871,264.408600 
	C147.582855,272.191833 154.290787,269.125336 161.313019,269.999146 
	C159.634140,267.351257 158.921249,264.857025 157.351822,264.069275 
	C154.931763,262.854584 152.930618,264.171539 152.543304,267.229736 
	C152.484467,267.694305 151.477859,268.038849 150.909637,268.438873 
	C150.518188,267.670563 150.126740,266.902252 150.123795,265.370361 
M195.857666,268.420990 
	C195.519745,267.034698 195.181808,265.648407 194.949524,264.695465 
	C194.347916,265.485596 193.397476,266.733887 192.110428,268.424255 
	C191.755875,266.509674 191.508423,265.173523 191.181259,263.406799 
	C190.226532,263.945709 189.613907,264.141357 189.230957,264.551453 
	C188.875381,264.932251 188.764954,265.541962 188.546585,266.050873 
	C188.446915,265.559906 188.347260,265.068970 188.247589,264.578003 
	C186.131271,264.578003 183.955490,264.313599 181.941055,264.766632 
	C181.446457,264.877838 181.478607,267.331421 181.268600,268.708130 
	C183.334442,268.838867 185.399033,269.012146 187.466934,269.073212 
	C188.051239,269.090515 188.649078,268.630829 189.234070,268.645966 
	C191.267563,268.698547 193.298157,268.863586 195.857666,268.420990 
M214.345291,264.003510 
	C213.572266,264.683655 212.799255,265.363800 211.937576,266.121979 
	C211.612503,265.131348 211.395950,264.471436 210.944336,263.095184 
	C210.477737,269.283569 211.179489,269.913574 216.688782,269.857544 
	C218.311508,267.878326 219.603500,266.302521 220.895477,264.726715 
	C221.847198,265.998749 222.798920,267.270782 223.750626,268.542816 
	C223.111923,268.555847 222.473206,268.568848 221.834488,268.581879 
	C222.604401,266.904602 223.374313,265.227325 223.573685,264.792969 
	C221.046051,264.506836 218.039856,264.166565 214.345291,264.003510 
M174.679413,272.520599 
	C174.899307,271.756897 175.101318,270.336151 175.341782,270.329620 
	C178.235321,270.250916 180.756714,269.192352 179.629730,266.095032 
	C179.161835,264.809143 175.827591,264.530914 173.766922,263.890717 
	C173.371536,263.767883 172.836502,264.094604 171.345718,264.472656 
	C172.242340,267.336517 173.112350,270.115448 174.679413,272.520599 
M113.401466,269.968414 
	C118.310829,271.059937 116.917343,266.913940 118.934608,263.486420 
	C115.908592,264.061920 113.650429,263.867249 112.597687,264.900604 
	C111.835526,265.648712 112.672493,268.025909 113.401466,269.968414 
M165.256836,263.657318 
	C165.365768,265.803314 165.474716,267.949310 165.583649,270.095337 
	C166.347382,270.058929 167.111130,270.022552 167.874863,269.986176 
	C167.874863,267.447205 167.958450,264.903015 167.801605,262.373779 
	C167.771622,261.890411 166.793610,261.465881 166.252960,261.014191 
	C165.911636,261.595886 165.570312,262.177582 165.256836,263.657318 
M223.474838,197.420975 
	C223.534500,197.180939 223.594177,196.940903 223.653854,196.700882 
	C223.504852,196.855576 223.355850,197.010269 223.474838,197.420975 
z"/>
<path fill="#F1F0EE" opacity="1.000000" stroke="none" 
	d="
M217.028976,197.980637 
	C217.424789,197.963272 217.820587,197.945892 218.829987,197.853699 
	C220.007980,197.480286 220.572372,197.181717 221.136765,196.883148 
	C221.610443,197.814194 222.084122,198.745255 222.571503,200.119324 
	C221.411514,201.060028 220.237854,201.557739 219.064194,202.055435 
	C219.173248,202.393768 219.282318,202.732086 219.391373,203.070419 
	C221.753586,202.806763 224.115799,202.543106 226.504227,202.598175 
	C224.450378,203.807724 222.370300,204.698532 220.292145,205.588516 
	C220.545349,206.674911 220.763901,207.612625 221.039993,208.981476 
	C221.067871,221.393997 221.024139,233.375351 221.017624,245.356750 
	C221.015808,248.718460 221.905441,251.056381 226.097458,251.117554 
	C230.483795,251.181580 230.819504,248.812119 230.819778,245.395874 
	C230.820709,233.252151 231.007462,221.108414 231.123840,208.964691 
	C234.155151,208.790588 234.019867,210.866623 234.008820,212.939880 
	C233.978439,218.642578 234.076248,224.347107 233.962463,230.047699 
	C233.911713,232.589645 234.428421,234.306198 237.782013,234.466766 
	C235.292313,246.386597 242.041824,252.939499 253.403580,250.116730 
	C256.771729,249.279938 260.501862,250.006958 264.028900,249.649750 
	C265.420990,249.508743 267.887085,248.335800 267.871155,247.681168 
	C267.647552,238.476212 267.079681,229.279633 266.595398,220.081009 
	C268.061768,222.339706 270.088104,224.429382 270.835388,226.905121 
	C271.568024,229.332199 271.158722,232.163986 270.963318,234.796844 
	C270.682526,238.581345 272.014862,240.526306 276.333618,240.297058 
	C274.736755,242.435516 274.355469,243.947876 276.899384,245.770676 
	C283.351379,250.393829 290.405884,252.042068 298.121429,250.426987 
	C305.447632,248.893433 309.284760,244.652191 309.741547,238.065048 
	C310.163147,231.985306 306.629639,227.593796 299.517487,225.118637 
	C296.253632,223.982758 293.073242,222.607117 289.922729,220.946259 
	C291.069031,217.122955 293.472473,216.619568 296.649139,217.304428 
	C298.717255,217.750290 300.871735,217.833176 302.994354,217.979218 
	C305.990051,218.185318 307.271606,216.714325 306.945648,213.360840 
	C307.974396,209.937225 306.459564,207.957336 303.807434,207.387451 
	C298.918701,206.336945 293.919006,205.802658 288.733002,204.820374 
	C288.119202,203.805237 287.737946,203.023026 287.356689,202.240799 
	C293.855591,203.593842 300.793854,203.954483 306.728638,206.581833 
	C312.546295,209.157349 312.648163,215.446899 308.297119,220.185547 
	C307.849091,220.673492 307.095520,221.083328 306.980957,221.633041 
	C306.740753,222.785599 306.375397,224.308319 306.910248,225.119019 
	C307.489655,225.997238 309.212555,226.843979 310.108093,226.581802 
	C310.958008,226.333008 311.709412,224.695602 311.930267,223.557449 
	C312.479767,220.725922 310.855408,216.977692 315.822449,216.553131 
	C316.153778,224.344879 316.121460,231.654877 315.856934,239.107452 
	C315.963745,239.841431 316.302826,240.432800 316.765900,241.337189 
	C316.936462,242.095139 316.983032,242.540100 316.762238,243.197693 
	C316.801849,249.057739 321.634247,253.699127 327.815796,253.950684 
	C332.595337,254.145203 337.439880,254.394028 342.153168,253.802719 
	C344.218109,253.543686 346.027954,251.251160 348.140839,249.521255 
	C348.489136,245.797729 348.650238,242.434952 349.071716,238.919922 
	C349.141998,237.839630 348.951965,236.911575 348.625305,235.598190 
	C348.598389,234.146332 348.708099,233.079803 349.062531,231.886658 
	C349.178711,230.829773 349.050201,229.899536 348.863464,228.511047 
	C348.832214,225.233475 348.758545,222.408676 348.911438,219.596191 
	C349.106110,216.015457 347.165588,215.036316 344.007843,214.950394 
	C340.710999,214.860687 339.696259,216.428513 339.696838,219.504425 
	C339.697845,224.971664 339.499786,230.441788 339.261444,235.905319 
	C339.078278,240.104279 337.008484,242.912781 332.612610,243.092407 
	C328.022858,243.279953 326.071106,240.361816 325.907043,236.178665 
	C325.738220,231.875000 325.798523,227.558762 325.871796,223.249954 
	C326.007111,215.295242 325.895752,215.143723 318.014801,215.067993 
	C320.972778,211.729370 326.738220,212.595108 328.448700,217.372299 
	C329.840973,221.260803 329.428711,225.771530 330.032867,229.975266 
	C330.384583,232.422485 328.286316,236.232361 332.759430,236.504105 
	C333.375427,236.541519 334.584930,232.317673 334.929565,229.979645 
	C335.408600,226.729965 335.001892,223.341339 335.559906,220.113434 
	C336.656616,213.769485 342.898651,211.784164 349.120850,214.013351 
	C351.114929,214.727768 353.360413,214.740494 355.751221,215.553436 
	C355.901398,218.160934 355.732574,220.288116 355.691162,222.417786 
	C355.518951,231.275085 355.385101,240.133118 354.937683,249.176514 
	C354.807587,252.909348 354.976959,256.456573 355.321106,260.356537 
	C356.103973,261.849792 356.712097,262.990356 357.258179,264.518860 
	C357.052948,265.946259 356.909851,266.985626 356.766724,268.025024 
	C355.428009,268.459137 354.085327,268.881348 352.751465,269.329895 
	C350.226562,270.178955 347.324463,272.912720 346.064484,267.773376 
	C345.950195,267.307281 344.017883,267.428741 343.056915,266.995422 
	C341.589569,266.333771 340.233093,265.426178 338.829559,264.623016 
	C339.053772,264.148438 339.277954,263.673889 339.502136,263.199310 
	C341.437164,263.508789 343.410461,264.204620 345.296326,264.017761 
	C347.134949,263.835541 349.329956,263.170380 350.513489,261.912689 
	C351.282806,261.095123 351.134277,258.192810 350.289276,257.389069 
	C349.254517,256.404877 347.059418,256.373047 345.371002,256.391296 
	C339.068726,256.459534 332.756378,257.035065 326.471649,256.795166 
	C322.001862,256.624451 318.512756,254.033310 315.782318,250.372299 
	C313.923187,247.879578 312.310303,247.206146 309.587433,250.362640 
	C304.289337,256.504456 296.809937,258.062683 289.111298,256.702637 
	C284.474182,255.883453 280.122375,253.536804 275.563599,252.132141 
	C274.253357,251.728424 272.293518,251.678131 271.278473,252.389252 
	C267.758270,254.855377 264.440216,257.007477 259.808929,255.242905 
	C258.627319,254.792709 256.907684,255.543564 255.494492,255.949066 
	C249.434143,257.688049 243.721893,257.654694 238.554840,253.349274 
	C236.480347,251.620697 234.419632,251.744125 232.465485,253.964264 
	C229.369446,257.481659 225.874847,257.539246 221.667633,255.503601 
	C219.542435,254.475342 216.641602,254.659042 214.141434,254.874527 
	C208.051590,255.399414 201.971298,256.922455 195.925858,256.742706 
	C192.293655,256.634674 188.286438,254.686798 185.274597,252.451630 
	C182.553955,250.432602 180.804352,249.492096 178.075195,251.922455 
	C171.263443,257.988403 163.136581,258.127380 155.158752,255.650009 
	C151.609543,254.547852 148.600571,251.285568 145.709152,248.611496 
	C143.153198,246.247665 141.318283,246.778519 139.505508,249.168198 
	C133.887466,256.574249 126.093422,257.782623 117.648605,256.633118 
	C114.579857,256.215393 111.307945,255.452621 108.712814,253.882111 
	C105.805679,252.122803 102.533417,249.711639 101.274002,246.786011 
	C99.492279,242.647095 102.242226,239.224655 106.031219,236.968536 
	C106.704697,236.567535 107.237068,235.929581 108.046562,235.213531 
	C106.974205,233.741302 106.142303,232.319641 105.047668,231.142242 
	C98.536949,224.139328 100.100067,210.650299 108.851501,205.651901 
	C109.729378,205.150513 110.237190,204.001205 111.409500,202.834747 
	C118.947929,202.506592 125.993584,202.496292 133.039246,202.485977 
	C134.398575,204.201843 135.663239,206.004181 137.136093,207.616348 
	C140.684540,211.500427 140.944427,214.836349 137.836075,218.621780 
	C132.984955,224.529678 132.984955,224.529678 139.622131,228.564056 
	C143.565979,224.696167 147.460480,220.876663 151.577774,217.389313 
	C144.532272,225.025711 142.835190,236.011841 147.885345,243.066879 
	C153.514008,250.930099 163.628326,253.226746 172.809219,248.726288 
	C178.059891,246.152420 178.323395,245.102692 174.942871,240.226364 
	C181.911041,238.364914 184.933258,232.642868 183.236694,225.095123 
	C182.305161,220.950882 183.764877,217.734116 187.709229,215.628571 
	C194.045822,212.246048 200.847641,213.064087 207.912933,213.471527 
	C207.827805,214.515106 207.408722,215.163651 206.549118,215.665604 
	C200.750809,216.020081 195.360275,216.314896 190.056671,217.157104 
	C188.602692,217.388000 187.409103,219.258713 186.096039,220.376938 
	C187.393097,221.638840 188.690170,222.900742 190.089996,224.532822 
	C191.711502,225.270645 193.321518,225.435349 194.722137,226.065491 
	C196.010422,226.645111 197.073364,227.725571 197.863037,228.713501 
	C195.853607,229.035461 194.197464,229.129440 192.583145,229.440414 
	C185.502960,230.804306 182.188690,236.427673 184.781967,243.252747 
	C185.679779,245.615646 187.639359,247.575104 189.118088,250.132721 
	C190.350830,251.362564 191.590637,252.892487 192.806137,252.873428 
	C198.708160,252.780823 204.607147,252.315933 210.495773,251.841354 
	C211.042801,251.797272 211.509689,250.759003 212.418884,250.106445 
	C213.530716,248.899063 214.817871,247.783203 214.848740,246.633575 
	C215.031799,239.817154 215.511246,232.918716 214.663010,226.202957 
	C214.245316,222.895996 211.190689,219.922089 209.482620,216.465851 
	C210.855988,215.191437 212.076050,214.248657 213.296112,213.305878 
	C210.192093,210.420502 214.890228,209.620834 215.026443,207.387604 
	C215.445374,206.423309 215.672546,205.621826 216.162659,203.892731 
	C214.930374,205.353333 214.335770,206.058105 213.456467,206.948334 
	C212.820053,206.071411 212.468338,205.009048 212.116623,203.946671 
	C213.135315,202.728867 214.154022,201.511047 215.786148,199.975235 
	C216.609375,199.098358 216.819183,198.539505 217.028976,197.980637 
M104.578751,222.343689 
	C105.208565,224.213135 105.272980,226.869949 106.574226,227.804367 
	C110.477272,230.607056 114.762642,232.943253 119.095123,235.059601 
	C122.157913,236.555710 124.558060,238.106247 123.166084,242.235107 
	C120.150177,241.536072 116.957703,241.250977 114.153770,240.054993 
	C107.572937,237.248001 107.574112,237.096344 103.975266,243.524353 
	C109.526749,249.651215 118.690300,252.402786 127.099907,250.468048 
	C134.399445,248.788696 138.326630,244.613968 138.740341,238.093918 
	C139.130081,231.951736 135.635986,227.594040 128.522659,225.121414 
	C125.257202,223.986343 122.070633,222.624313 118.942329,220.508484 
	C119.884300,214.824905 124.161095,217.550217 127.224548,217.230362 
	C129.151871,217.029144 131.082809,216.862366 133.623901,216.192764 
	C137.655945,210.973038 137.137589,208.849304 131.224472,206.716537 
	C129.515533,206.100159 127.757401,205.395432 125.976997,205.237915 
	C112.994781,204.089355 103.925499,205.948181 104.578751,222.343689 
z"/>
<path fill="#FED21B" opacity="1.000000" stroke="none" 
	d="
M355.237183,248.990891 
	C355.385101,240.133118 355.518951,231.275085 355.691162,222.417786 
	C355.732574,220.288116 355.901398,218.160934 356.135071,215.586517 
	C356.648193,215.106522 357.037872,215.072617 358.062988,215.131454 
	C362.751556,215.376251 366.804535,215.530396 370.857758,215.679779 
	C374.899170,215.828751 378.940796,215.972931 383.181458,216.382233 
	C386.211487,219.929092 389.042358,223.212921 391.828979,226.927612 
	C391.609711,231.933472 391.434723,236.508453 391.157867,241.373886 
	C390.692139,242.389297 390.328278,243.114288 389.671967,244.004715 
	C387.217743,245.801620 385.055969,247.433090 382.521606,249.119308 
	C376.587952,249.406250 371.026855,249.638412 365.063965,249.887360 
	C365.063965,251.590683 365.018036,253.712402 365.072083,255.831558 
	C365.280334,263.995758 365.292267,263.995453 357.320251,264.130890 
	C356.712097,262.990356 356.103973,261.849792 355.457153,259.916809 
	C355.358002,255.746552 355.297607,252.368729 355.237183,248.990891 
M365.334900,229.735565 
	C365.265747,231.699356 364.975983,233.685272 365.170197,235.622665 
	C365.687744,240.785995 370.022552,241.189926 373.787750,242.095291 
	C377.184937,242.912170 379.925446,242.075302 381.619934,237.891663 
	C381.992706,236.597977 382.365448,235.304291 382.871002,233.233856 
	C381.493744,230.188370 380.810822,226.438477 378.589691,224.249084 
	C374.407593,220.126709 368.432129,222.346100 366.388611,228.231003 
	C366.189819,228.534363 365.991028,228.837723 365.334900,229.735565 
z"/>
<path fill="#FED21B" opacity="1.000000" stroke="none" 
	d="
M288.965546,205.053284 
	C293.919006,205.802658 298.918701,206.336945 303.807434,207.387451 
	C306.459564,207.957336 307.974396,209.937225 306.651794,213.587402 
	C304.886353,216.670639 303.178894,216.128525 300.902069,215.226410 
	C298.085724,214.110535 294.973480,213.235199 291.991119,213.241333 
	C290.299713,213.244812 287.725922,214.910660 287.204193,216.405396 
	C286.788330,217.596741 288.877716,219.662582 289.854980,221.340225 
	C293.073242,222.607117 296.253632,223.982758 299.517487,225.118637 
	C306.629639,227.593796 310.163147,231.985306 309.741547,238.065048 
	C309.284760,244.652191 305.447632,248.893433 298.121429,250.426987 
	C290.405884,252.042068 283.351379,250.393829 276.899384,245.770676 
	C274.355469,243.947876 274.736755,242.435516 276.748901,240.287933 
	C278.874695,239.646545 280.985504,238.799408 282.872894,239.151123 
	C285.417786,239.625397 287.790619,241.022583 290.911865,242.169662 
	C295.007141,242.767426 298.715057,242.049667 299.060883,238.550034 
	C299.235199,236.785522 295.808319,234.172318 293.502289,232.788818 
	C291.002808,231.289322 287.890594,230.835464 285.084717,229.817780 
	C277.754852,227.159332 276.030609,224.253235 276.917938,216.459793 
	C276.973969,215.967712 276.373871,215.400940 276.079041,214.868896 
	C276.079041,214.868896 276.063538,214.584381 276.441772,214.382553 
	C283.847473,213.363708 288.025604,210.223816 288.965546,205.053284 
z"/>
<path fill="#FED21B" opacity="1.000000" stroke="none" 
	d="
M266.350464,219.871185 
	C267.079681,229.279633 267.647552,238.476212 267.871155,247.681168 
	C267.887085,248.335800 265.420990,249.508743 264.028900,249.649750 
	C260.501862,250.006958 256.771729,249.279938 253.403580,250.116730 
	C242.041824,252.939499 235.292313,246.386597 238.221313,234.500824 
	C239.112030,233.263489 239.917664,232.411942 241.191299,231.185059 
	C243.111176,230.241165 244.563049,229.672592 246.449890,229.152954 
	C249.657135,228.845673 252.466080,228.656342 255.185333,228.058807 
	C256.438263,227.783493 257.515686,226.709290 258.672699,225.997330 
	C257.629425,224.905380 256.754456,223.209290 255.504059,222.860992 
	C253.557922,222.318878 251.341324,222.527832 249.267578,222.721161 
	C246.840790,222.947418 244.444260,223.498291 241.858658,223.673370 
	C240.852707,222.928940 240.022720,222.419479 239.192719,221.910034 
	C239.814972,220.457672 240.036804,218.497208 241.126724,217.638275 
	C246.757523,213.200790 260.408783,214.441757 266.350464,219.871185 
M248.457169,242.270782 
	C252.673523,244.677078 255.731323,242.855972 258.051208,239.360794 
	C258.588898,238.550751 258.153931,236.026947 258.060760,236.021255 
	C255.064117,235.838028 251.904449,235.291367 249.088379,236.024734 
	C246.188019,236.780029 246.488373,239.374832 248.457169,242.270782 
z"/>
<path fill="#FED21B" opacity="1.000000" stroke="none" 
	d="
M317.029572,242.985046 
	C316.983032,242.540100 316.936462,242.095139 316.806213,241.058762 
	C316.511383,239.966507 316.300262,239.465683 316.089172,238.964859 
	C316.121460,231.654877 316.153778,224.344879 316.227570,216.576431 
	C316.713318,215.869232 317.157593,215.620499 317.808350,215.219879 
	C325.895752,215.143723 326.007111,215.295242 325.871796,223.249954 
	C325.798523,227.558762 325.738220,231.875000 325.907043,236.178665 
	C326.071106,240.361816 328.022858,243.279953 332.612610,243.092407 
	C337.008484,242.912781 339.078278,240.104279 339.261444,235.905319 
	C339.499786,230.441788 339.697845,224.971664 339.696838,219.504425 
	C339.696259,216.428513 340.710999,214.860687 344.007843,214.950394 
	C347.165588,215.036316 349.106110,216.015457 348.911438,219.596191 
	C348.758545,222.408676 348.832214,225.233475 348.690826,228.784058 
	C348.656891,230.347961 348.737366,231.180618 348.817810,232.013275 
	C348.708099,233.079803 348.598389,234.146332 348.468964,235.888763 
	C348.569946,237.400497 348.690643,238.236328 348.811340,239.072159 
	C348.650238,242.434952 348.489136,245.797729 347.711487,249.584747 
	C342.111206,250.324646 337.110687,250.479156 332.147766,250.995010 
	C325.231689,251.713867 320.125977,249.323685 317.029572,242.985046 
z"/>
<path fill="#EDE1C4" opacity="1.000000" stroke="none" 
	d="
M386.174591,285.905640 
	C382.412231,286.257355 378.649841,286.609070 374.449249,286.559326 
	C375.400696,276.328217 376.692535,266.482513 378.296692,256.687988 
	C378.511475,255.376663 380.305145,254.323944 381.367676,253.151489 
	C382.217102,254.287857 383.370972,255.314331 383.831757,256.591003 
	C384.309052,257.913361 384.114288,259.478271 384.213440,260.937134 
	C384.487701,260.914886 384.761963,260.892639 385.036224,260.870392 
	C385.036224,259.916565 385.036224,258.962708 385.447815,258.016418 
	C389.795410,258.126831 393.754333,258.547455 397.662537,258.265228 
	C405.405518,257.706024 413.120422,256.758789 420.846954,255.971954 
	C422.750336,258.590546 423.118225,260.794281 419.562805,262.457794 
	C418.793427,262.817780 418.529297,264.257660 417.990540,265.888184 
	C408.229431,269.901184 398.467865,272.269989 388.013458,268.325165 
	C387.593506,268.665955 386.720917,269.374023 385.559448,270.327911 
	C385.571899,275.684357 385.873260,280.795013 386.174591,285.905640 
z"/>
<path fill="#C45755" opacity="1.000000" stroke="none" 
	d="
M385.036224,258.008850 
	C385.036224,258.962708 385.036224,259.916565 385.036224,260.870392 
	C384.761963,260.892639 384.487701,260.914886 384.213440,260.937134 
	C384.114288,259.478271 384.309052,257.913361 383.831757,256.591003 
	C383.370972,255.314331 382.217102,254.287857 381.367676,253.151489 
	C380.305145,254.323944 378.511475,255.376663 378.296692,256.687988 
	C376.692535,266.482513 375.400696,276.328217 373.995178,286.564514 
	C372.639954,286.876190 371.235229,287.003052 369.976990,286.632477 
	C368.238953,286.120544 366.613800,285.227936 364.936035,284.508331 
	C354.480408,280.024078 354.480011,280.024994 356.808197,268.416351 
	C356.909851,266.985626 357.052948,265.946259 357.258179,264.518860 
	C365.292267,263.995453 365.280334,263.995758 365.072083,255.831558 
	C365.018036,253.712402 365.063965,251.590683 365.063965,249.887360 
	C371.026855,249.638412 376.587952,249.406250 382.739105,249.414352 
	C386.003113,250.573074 388.677094,251.491531 391.298462,252.742676 
	C391.465637,254.392120 391.685394,255.708893 391.494568,257.041016 
	C389.068054,257.373840 387.052124,257.691345 385.036224,258.008850 
z"/>
<path fill="#FED21B" opacity="1.000000" stroke="none" 
	d="
M174.560898,240.095810 
	C178.323395,245.102692 178.059891,246.152420 172.809219,248.726288 
	C163.628326,253.226746 153.514008,250.930099 147.885345,243.066879 
	C142.835190,236.011841 144.532272,225.025711 151.949417,217.415207 
	C152.098267,217.108932 152.055405,217.089371 152.461349,217.084793 
	C159.802765,214.204376 166.823029,214.108917 173.565414,217.317398 
	C175.070267,218.033493 176.716934,220.959564 176.389313,222.447937 
	C175.858765,224.858078 173.697357,226.546478 170.585480,224.991211 
	C168.972778,224.185211 167.153580,223.703278 165.373688,223.337631 
	C160.035934,222.241104 155.211014,225.406387 154.219666,230.728912 
	C153.409027,235.081070 154.901398,238.831146 158.608475,241.112625 
	C162.794891,243.689102 167.135712,243.407486 171.031723,240.087830 
	C172.080795,240.046967 173.129852,240.006104 174.560898,240.095810 
z"/>
<path fill="#141414" opacity="1.000000" stroke="none" 
	d="
M133.445587,202.527115 
	C125.993584,202.496292 118.947929,202.506592 111.431519,202.501205 
	C109.631668,202.516983 108.218063,202.845612 106.996704,202.498230 
	C105.718178,202.134628 104.624352,201.121597 103.449799,200.392410 
	C104.534401,199.734070 105.617233,198.503845 106.703865,198.500488 
	C139.628494,198.398544 172.553513,198.417404 205.528336,198.417404 
	C207.283051,202.319321 205.127136,202.613556 202.206772,202.607315 
	C179.421906,202.558701 156.636902,202.573227 133.445587,202.527115 
z"/>
<path fill="#FED21B" opacity="1.000000" stroke="none" 
	d="
M231.057159,208.604828 
	C231.007462,221.108414 230.820709,233.252151 230.819778,245.395874 
	C230.819504,248.812119 230.483795,251.181580 226.097458,251.117554 
	C221.905441,251.056381 221.015808,248.718460 221.017624,245.356750 
	C221.024139,233.375351 221.067871,221.393997 221.405853,208.803894 
	C224.754547,207.481873 227.794922,206.768555 230.835297,206.055252 
	C230.887024,206.785156 230.938736,207.515076 231.057159,208.604828 
z"/>
<path fill="#EDE1C4" opacity="1.000000" stroke="none" 
	d="
M391.259705,241.083466 
	C391.434723,236.508453 391.609711,231.933472 392.280457,226.828705 
	C402.203522,225.285507 411.630859,224.272079 421.058167,223.258652 
	C421.375549,226.071518 421.692932,228.884384 421.563293,232.145523 
	C414.569885,233.107635 408.023468,233.621460 401.477051,234.135284 
	C401.479309,234.693329 401.481598,235.251373 401.483887,235.809418 
	C407.279297,235.444870 413.074677,235.080322 418.870056,234.715775 
	C418.183136,236.149231 417.496216,237.582672 416.142212,238.718201 
	C413.220215,238.482468 410.943085,238.365570 408.714630,238.641678 
	C402.884979,239.363922 397.076569,240.257919 391.259705,241.083466 
z"/>
<path fill="#F1F0EE" opacity="1.000000" stroke="none" 
	d="
M170.783264,239.794571 
	C167.135712,243.407486 162.794891,243.689102 158.608475,241.112625 
	C154.901398,238.831146 153.409027,235.081070 154.219666,230.728912 
	C155.211014,225.406387 160.035934,222.241104 165.373688,223.337631 
	C167.153580,223.703278 168.972778,224.185211 170.585480,224.991211 
	C173.697357,226.546478 175.858765,224.858078 176.389313,222.447937 
	C176.716934,220.959564 175.070267,218.033493 173.565414,217.317398 
	C166.823029,214.108917 159.802765,214.204376 152.473618,217.100388 
	C153.384888,216.082977 154.542664,214.497177 156.019699,214.100677 
	C163.239838,212.162445 170.603043,211.553223 176.760895,216.685333 
	C178.704712,218.305344 180.383545,221.837173 180.068130,224.213181 
	C179.551315,228.106110 176.660095,231.096954 172.081772,230.944595 
	C169.459259,230.857315 166.850281,230.071274 164.236832,230.080139 
	C161.224701,230.090347 158.845200,231.749725 159.282028,234.964890 
	C159.686508,237.941849 161.597122,239.976868 165.207352,239.470123 
	C166.947418,239.225876 168.756790,239.475372 170.783264,239.794571 
z"/>
<path fill="#EDE1C4" opacity="1.000000" stroke="none" 
	d="
M391.905151,257.025665 
	C391.685394,255.708893 391.465637,254.392120 391.718933,252.672821 
	C395.676025,251.978622 399.160004,251.686966 402.644012,251.395294 
	C402.612885,251.009338 402.581787,250.623383 402.550659,250.237427 
	C398.798767,250.544434 395.046844,250.851456 391.541260,251.138321 
	C389.673340,246.887222 393.092560,246.513535 395.368469,245.058029 
	C403.199066,244.057236 410.572876,243.074890 417.946686,242.092560 
	C417.978149,245.865112 418.009583,249.637665 417.837830,254.172974 
	C415.274323,254.944824 412.897278,254.776733 410.556854,254.997284 
	C404.331177,255.583939 398.121307,256.338104 391.905151,257.025665 
z"/>
<path fill="#6B6266" opacity="1.000000" stroke="none" 
	d="
M421.343536,223.069931 
	C411.630859,224.272079 402.203522,225.285507 392.324738,226.397842 
	C389.042358,223.212921 386.211487,219.929092 383.387970,216.324585 
	C383.690277,215.971512 383.945923,215.853836 384.162354,215.650909 
	C397.100800,212.786301 408.958710,216.722763 420.668091,221.503479 
	C421.103333,221.681183 421.313721,222.409485 421.343536,223.069931 
z"/>
<path fill="#4E96D0" opacity="1.000000" stroke="none" 
	d="
M288.733002,204.820374 
	C288.025604,210.223816 283.847473,213.363708 276.414917,214.242645 
	C274.953491,212.678421 273.897156,211.052277 272.848785,209.438400 
	C270.767487,209.623108 268.704071,209.806229 266.160400,210.031982 
	C272.080750,201.335587 279.711639,196.843811 290.258026,196.307755 
	C289.211365,198.165741 288.302307,199.779419 287.375000,201.816940 
	C287.737946,203.023026 288.119202,203.805237 288.733002,204.820374 
z"/>
<path fill="#EEEBE1" opacity="1.000000" stroke="none" 
	d="
M385.848328,270.082092 
	C386.720917,269.374023 387.593506,268.665955 388.013458,268.325165 
	C398.467865,272.269989 408.229431,269.901184 417.993927,266.272156 
	C418.986084,267.273254 419.933014,268.578461 420.653564,270.535522 
	C419.361633,272.295135 418.454163,274.109375 417.203339,274.389221 
	C411.595825,275.643982 405.882385,276.416718 400.222565,277.448029 
	C390.882416,279.149933 389.055176,278.239655 385.848328,270.082092 
z"/>
<path fill="#EDE1C4" opacity="1.000000" stroke="none" 
	d="
M423.062134,277.011169 
	C426.689392,282.665863 420.974915,283.244171 418.516602,283.683441 
	C408.890594,285.403473 399.119385,286.310791 389.194458,286.837158 
	C388.679138,284.394867 388.371521,282.635498 388.057800,280.841278 
	C390.056610,280.644257 391.789856,280.491547 393.518768,280.299988 
	C403.367126,279.208832 413.214447,278.108429 423.062134,277.011169 
z"/>
<path fill="#F1F0EE" opacity="1.000000" stroke="none" 
	d="
M275.686646,214.985962 
	C276.373871,215.400940 276.973969,215.967712 276.917938,216.459793 
	C276.030609,224.253235 277.754852,227.159332 285.084717,229.817780 
	C287.890594,230.835464 291.002808,231.289322 293.502289,232.788818 
	C295.808319,234.172318 299.235199,236.785522 299.060883,238.550034 
	C298.715057,242.049667 295.007141,242.767426 291.289185,242.156219 
	C292.468719,238.536469 291.492035,236.922882 287.721161,235.599075 
	C283.791412,234.219482 280.021667,231.812469 276.810669,229.108154 
	C273.163177,226.036224 272.874023,219.814453 275.686646,214.985962 
z"/>
<path fill="#141414" opacity="1.000000" stroke="none" 
	d="
M334.158386,267.835022 
	C332.951294,267.878998 332.083801,267.945557 331.222137,267.900696 
	C330.370544,267.856415 328.997955,267.316010 328.755280,267.649353 
	C324.853455,273.009644 321.969238,268.371246 318.672333,266.832703 
	C316.605347,265.868103 314.308167,265.396637 312.694519,264.887115 
	C315.487793,265.020050 318.777832,265.337036 322.061981,265.284576 
	C324.939392,265.238586 327.816254,264.561279 330.679932,264.641510 
	C331.465820,264.663544 332.203552,266.404663 333.297211,267.775299 
	C334.278351,266.550079 335.189270,265.412506 336.353638,263.958466 
	C336.744446,265.664001 337.063812,267.057678 337.482910,268.886597 
	C336.250824,268.441345 335.375702,268.125061 334.158386,267.835022 
z"/>
<path fill="#C45755" opacity="1.000000" stroke="none" 
	d="
M422.904236,276.677094 
	C413.214447,278.108429 403.367126,279.208832 393.518768,280.299988 
	C391.789856,280.491547 390.056610,280.644257 388.057800,280.841278 
	C388.371521,282.635498 388.679138,284.394867 388.993011,286.536499 
	C388.240723,286.663574 387.482147,286.408386 386.449097,286.029419 
	C385.873260,280.795013 385.571899,275.684357 385.559448,270.327911 
	C389.055176,278.239655 390.882416,279.149933 400.222565,277.448029 
	C405.882385,276.416718 411.595825,275.643982 417.203339,274.389221 
	C418.454163,274.109375 419.361633,272.295135 420.566101,270.897583 
	C421.385468,272.519562 422.065887,274.431274 422.904236,276.677094 
z"/>
<path fill="#141414" opacity="1.000000" stroke="none" 
	d="
M266.670197,267.064575 
	C265.390076,268.212860 263.893616,270.137543 263.342102,269.896851 
	C258.622986,267.837372 253.462708,272.003510 248.663116,267.735504 
	C248.909988,268.588898 248.808044,268.433228 248.838669,268.310760 
	C249.055206,267.445221 249.355820,266.596313 249.507248,265.720947 
	C249.571732,265.348145 249.342377,264.924500 249.513763,265.640961 
	C252.819000,264.291565 255.779541,263.082886 259.013275,261.762695 
	C259.039185,261.864380 259.303162,262.719147 259.465820,263.592712 
	C259.613617,264.386688 259.651184,265.201141 259.689819,265.562469 
	C261.973053,265.011749 264.095459,264.499847 266.217896,263.987915 
	C266.442566,264.937653 266.667236,265.887360 266.670197,267.064575 
z"/>
<path fill="#F1F0EE" opacity="1.000000" stroke="none" 
	d="
M417.805298,241.806458 
	C410.572876,243.074890 403.199066,244.057236 394.999329,245.005798 
	C392.770386,244.594421 391.367401,244.216858 389.964417,243.839279 
	C390.328278,243.114288 390.692139,242.389297 391.157837,241.373901 
	C397.076569,240.257919 402.884979,239.363922 408.714630,238.641678 
	C410.943085,238.365570 413.220215,238.482468 415.740509,238.716522 
	C416.558533,239.848602 417.111206,240.684479 417.805298,241.806458 
z"/>
<path fill="#141414" opacity="1.000000" stroke="none" 
	d="
M303.403564,268.554077 
	C300.705658,269.767639 298.338531,271.224609 295.309753,273.088806 
	C295.165863,270.062897 295.026428,267.130615 294.873352,263.911621 
	C299.137878,263.911621 303.029297,263.911621 308.402466,263.911621 
	C308.475220,264.785095 308.659760,267.000488 308.844299,269.215881 
	C307.140961,269.076416 305.437653,268.936920 303.403564,268.554077 
z"/>
<path fill="#141414" opacity="1.000000" stroke="none" 
	d="
M234.251404,270.094727 
	C232.746475,269.272339 230.410019,268.166962 230.534027,267.633820 
	C230.958710,265.807800 232.246902,264.182617 233.418823,262.102783 
	C236.588837,266.081909 237.999222,263.476074 239.490341,260.690186 
	C241.586472,263.682587 243.363708,266.219727 245.140945,268.756897 
	C243.398788,265.957214 237.162292,275.121521 237.219543,265.672302 
	C236.328918,267.139526 235.438293,268.606781 234.251404,270.094727 
z"/>
<path fill="#141414" opacity="1.000000" stroke="none" 
	d="
M149.929535,265.752136 
	C150.126740,266.902252 150.518188,267.670563 150.909637,268.438873 
	C151.477859,268.038849 152.484467,267.694305 152.543304,267.229736 
	C152.930618,264.171539 154.931763,262.854584 157.351822,264.069275 
	C158.921249,264.857025 159.634140,267.351257 161.313019,269.999146 
	C154.290787,269.125336 147.582855,272.191833 144.679871,264.408600 
	C145.801956,263.546509 147.212372,262.462860 149.306549,260.853912 
	C149.613388,262.549683 149.868591,263.960022 149.929535,265.752136 
z"/>
<path fill="#141414" opacity="1.000000" stroke="none" 
	d="
M195.593750,268.703430 
	C193.298157,268.863586 191.267563,268.698547 189.234070,268.645966 
	C188.649078,268.630829 188.051239,269.090515 187.466934,269.073212 
	C185.399033,269.012146 183.334442,268.838867 181.268600,268.708130 
	C181.478607,267.331421 181.446457,264.877838 181.941055,264.766632 
	C183.955490,264.313599 186.131271,264.578003 188.247589,264.578003 
	C188.347260,265.068970 188.446915,265.559906 188.546585,266.050873 
	C188.764954,265.541962 188.875381,264.932251 189.230957,264.551453 
	C189.613907,264.141357 190.226532,263.945709 191.181259,263.406799 
	C191.508423,265.173523 191.755875,266.509674 192.110428,268.424255 
	C193.397476,266.733887 194.347916,265.485596 194.949524,264.695465 
	C195.181808,265.648407 195.519745,267.034698 195.593750,268.703430 
z"/>
<path fill="#141414" opacity="1.000000" stroke="none" 
	d="
M214.689484,263.914886 
	C218.039856,264.166565 221.046051,264.506836 223.573685,264.792969 
	C223.374313,265.227325 222.604401,266.904602 221.834488,268.581879 
	C222.473206,268.568848 223.111923,268.555847 223.750626,268.542816 
	C222.798920,267.270782 221.847198,265.998749 220.895477,264.726715 
	C219.603500,266.302521 218.311508,267.878326 216.688782,269.857544 
	C211.179489,269.913574 210.477737,269.283569 210.944336,263.095184 
	C211.395950,264.471436 211.612503,265.131348 211.937576,266.121979 
	C212.799255,265.363800 213.572266,264.683655 214.689484,263.914886 
z"/>
<path fill="#6B6266" opacity="1.000000" stroke="none" 
	d="
M391.494568,257.041016 
	C398.121307,256.338104 404.331177,255.583939 410.556854,254.997284 
	C412.897278,254.776733 415.274323,254.944824 417.841156,254.614059 
	C418.885834,254.689102 419.724030,255.085815 420.704590,255.727234 
	C413.120422,256.758789 405.405518,257.706024 397.662537,258.265228 
	C393.754333,258.547455 389.795410,258.126831 385.447815,258.016418 
	C387.052124,257.691345 389.068054,257.373840 391.494568,257.041016 
z"/>
<path fill="#6B6266" opacity="1.000000" stroke="none" 
	d="
M131.185028,268.667175 
	C128.716675,269.768219 126.248344,270.869232 122.811295,272.402344 
	C122.573158,270.276276 122.235619,267.262756 121.898079,264.249237 
	C122.326576,263.779663 122.755081,263.310089 123.183586,262.840515 
	C125.577431,264.113251 127.971268,265.385986 130.773712,266.600952 
	C131.183212,267.251160 131.184113,267.959198 131.185028,268.667175 
z"/>
<path fill="#F1F0EE" opacity="1.000000" stroke="none" 
	d="
M383.989410,215.258423 
	C383.945923,215.853836 383.690277,215.971512 383.188843,216.061554 
	C378.940796,215.972931 374.899170,215.828751 370.857758,215.679779 
	C366.804535,215.530396 362.751556,215.376251 358.350769,215.073242 
	C358.469788,214.323517 358.928955,213.210190 359.404449,213.203171 
	C366.565094,213.097427 373.729309,213.071365 380.888641,213.219193 
	C381.875488,213.239578 382.841064,214.291565 383.989410,215.258423 
z"/>
<path fill="#141414" opacity="1.000000" stroke="none" 
	d="
M174.330887,272.707489 
	C173.112350,270.115448 172.242340,267.336517 171.345718,264.472656 
	C172.836502,264.094604 173.371536,263.767883 173.766922,263.890717 
	C175.827591,264.530914 179.161835,264.809143 179.629730,266.095032 
	C180.756714,269.192352 178.235321,270.250916 175.341782,270.329620 
	C175.101318,270.336151 174.899307,271.756897 174.330887,272.707489 
z"/>
<path fill="#141414" opacity="1.000000" stroke="none" 
	d="
M131.490631,269.004822 
	C131.184113,267.959198 131.183212,267.251160 131.101807,266.288330 
	C133.196655,262.631073 135.442642,262.683197 137.907837,265.782379 
	C138.418533,266.424408 139.453110,267.177704 140.080170,267.051910 
	C140.717377,266.924072 141.149338,265.773102 141.199585,265.705414 
	C141.363297,267.623627 135.801300,270.378448 131.490631,269.004822 
z"/>
<path fill="#4E96D0" opacity="1.000000" stroke="none" 
	d="
M231.025085,205.744751 
	C227.794922,206.768555 224.754547,207.481873 221.348328,208.372757 
	C220.763901,207.612625 220.545349,206.674911 220.292145,205.588516 
	C222.370300,204.698532 224.450378,203.807724 226.936005,202.522064 
	C229.990997,201.388901 232.620361,200.552094 235.308548,200.003601 
	C235.788406,199.905685 236.511978,201.002167 237.123016,201.547150 
	C235.153641,202.842850 233.184250,204.138550 231.025085,205.744751 
z"/>
<path fill="#6B6266" opacity="1.000000" stroke="none" 
	d="
M212.010147,204.100067 
	C212.468338,205.009048 212.820053,206.071411 213.716415,207.163879 
	C214.452271,207.312775 214.643494,207.431580 214.834702,207.550400 
	C214.890228,209.620834 210.192093,210.420502 213.296112,213.305878 
	C212.076050,214.248657 210.855988,215.191437 209.280243,216.663452 
	C208.279572,216.732529 207.634613,216.272369 206.989655,215.812210 
	C207.408722,215.163651 207.827805,214.515106 208.413239,213.511810 
	C209.687622,210.189209 210.795639,207.221329 212.010147,204.100067 
z"/>
<path fill="#6B6266" opacity="1.000000" stroke="none" 
	d="
M237.313446,201.256531 
	C236.511978,201.002167 235.788406,199.905685 235.308548,200.003601 
	C232.620361,200.552094 229.990997,201.388901 226.909790,202.203339 
	C224.115799,202.543106 221.753586,202.806763 219.391373,203.070419 
	C219.282318,202.732086 219.173248,202.393768 219.064194,202.055435 
	C220.237854,201.557739 221.411514,201.060028 222.830597,200.306641 
	C224.782379,199.665451 226.488724,199.279922 228.926895,198.872162 
	C230.474457,198.264435 231.290176,197.678940 232.105911,197.093445 
	C233.539917,197.346848 235.150085,197.290695 236.342270,197.969086 
	C237.064163,198.379852 237.138565,199.928513 237.313446,201.256531 
z"/>
<path fill="#141414" opacity="1.000000" stroke="none" 
	d="
M113.098907,269.822510 
	C112.672493,268.025909 111.835526,265.648712 112.597687,264.900604 
	C113.650429,263.867249 115.908592,264.061920 118.934608,263.486420 
	C116.917343,266.913940 118.310829,271.059937 113.098907,269.822510 
z"/>
<path fill="#6B6266" opacity="1.000000" stroke="none" 
	d="
M419.134094,234.501541 
	C413.074677,235.080322 407.279297,235.444870 401.483887,235.809418 
	C401.481598,235.251373 401.479309,234.693329 401.477051,234.135284 
	C408.023468,233.621460 414.569885,233.107635 421.577393,232.534821 
	C421.158356,233.079666 420.278259,233.683487 419.134094,234.501541 
z"/>
<path fill="#F1F0EE" opacity="1.000000" stroke="none" 
	d="
M246.014923,229.104034 
	C244.563049,229.672592 243.111176,230.241165 241.336838,230.927734 
	C240.211472,228.136200 239.408569,225.226654 238.899200,222.113571 
	C240.022720,222.419479 240.852707,222.928940 241.884644,224.035583 
	C243.396011,226.123199 244.705460,227.613617 246.014923,229.104034 
z"/>
<path fill="#141414" opacity="1.000000" stroke="none" 
	d="
M165.242920,263.208313 
	C165.570312,262.177582 165.911636,261.595886 166.252960,261.014191 
	C166.793610,261.465881 167.771622,261.890411 167.801605,262.373779 
	C167.958450,264.903015 167.874863,267.447205 167.874863,269.986176 
	C167.111130,270.022552 166.347382,270.058929 165.583649,270.095337 
	C165.474716,267.949310 165.365768,265.803314 165.242920,263.208313 
z"/>
<path fill="#EEEBE1" opacity="1.000000" stroke="none" 
	d="
M231.795319,196.945648 
	C231.290176,197.678940 230.474457,198.264435 229.298431,198.805923 
	C227.832001,197.928238 226.725830,197.094574 225.619659,196.260910 
	C225.743179,195.794235 225.866684,195.327560 225.990204,194.860886 
	C227.821716,195.506546 229.653229,196.152206 231.795319,196.945648 
z"/>
<path fill="#EEEBE1" opacity="1.000000" stroke="none" 
	d="
M220.936844,196.654602 
	C220.572372,197.181717 220.007980,197.480286 219.125458,197.821609 
	C219.450531,197.384918 220.093719,196.905487 220.936844,196.654602 
z"/>
<path fill="#EEEBE1" opacity="1.000000" stroke="none" 
	d="
M216.763458,198.104828 
	C216.819183,198.539505 216.609375,199.098358 216.097092,199.730652 
	C216.029053,199.279068 216.263489,198.754044 216.763458,198.104828 
z"/>
<path fill="#F1F0EE" opacity="1.000000" stroke="none" 
	d="
M223.340851,197.292969 
	C223.355850,197.010269 223.504852,196.855576 223.653854,196.700867 
	C223.594177,196.940903 223.534500,197.180939 223.340851,197.292969 
z"/>
<path fill="#FED21B" opacity="1.000000" stroke="none" 
	d="
M118.848282,221.365204 
	C122.070633,222.624313 125.257202,223.986343 128.522659,225.121414 
	C135.635986,227.594040 139.130081,231.951736 138.740341,238.093918 
	C138.326630,244.613968 134.399445,248.788696 127.099907,250.468048 
	C118.690300,252.402786 109.526749,249.651215 103.975266,243.524353 
	C107.574112,237.096344 107.572937,237.248001 114.153770,240.054993 
	C116.957703,241.250977 120.150177,241.536072 123.931656,242.109467 
	C129.731476,238.980011 129.873276,236.413727 124.776779,233.692520 
	C121.756866,232.080063 118.382492,231.057175 115.077408,230.071213 
	C110.576675,228.728546 107.020088,226.408539 105.149277,221.939148 
	C103.925499,205.948181 112.994781,204.089355 125.976997,205.237915 
	C127.757401,205.395432 129.515533,206.100159 131.224472,206.716537 
	C137.137589,208.849304 137.655945,210.973038 132.972366,216.245209 
	C128.577667,215.212036 124.884888,213.694717 121.067017,213.249008 
	C119.495445,213.065552 116.764954,214.863998 116.219154,216.364075 
	C115.785957,217.554626 117.877647,219.663879 118.848282,221.365204 
z"/>
<path fill="#FED21B" opacity="1.000000" stroke="none" 
	d="
M206.549118,215.665604 
	C207.634613,216.272369 208.279572,216.732529 209.126923,216.995087 
	C211.190689,219.922089 214.245316,222.895996 214.663010,226.202957 
	C215.511246,232.918716 215.031799,239.817154 214.848740,246.633575 
	C214.817871,247.783203 213.530716,248.899063 212.028564,249.961761 
	C207.377991,249.945938 203.522415,250.060837 199.667831,250.033585 
	C196.149323,250.008713 192.631866,249.829849 189.113953,249.718872 
	C187.639359,247.575104 185.679779,245.615646 184.781967,243.252747 
	C182.188690,236.427673 185.502960,230.804306 192.583145,229.440414 
	C194.197464,229.129440 195.853607,229.035461 198.282318,228.679443 
	C201.108963,227.475067 205.473541,229.474625 204.770874,225.363342 
	C204.529419,223.950668 200.162857,222.616898 197.587082,222.409210 
	C195.116989,222.210052 192.525421,223.517380 189.987228,224.162628 
	C188.690170,222.900742 187.393097,221.638840 186.096039,220.376938 
	C187.409103,219.258713 188.602692,217.388000 190.056671,217.157104 
	C195.360275,216.314896 200.750809,216.020081 206.549118,215.665604 
M196.204803,243.037933 
	C200.215088,244.266754 202.976639,242.417816 204.960968,239.209106 
	C205.438904,238.436295 205.098236,236.193848 205.039017,236.190247 
	C201.874725,235.997894 198.351715,235.086197 195.616898,236.160660 
	C192.356430,237.441589 193.468597,240.439270 196.204803,243.037933 
z"/>
<path fill="#EEEBE1" opacity="1.000000" stroke="none" 
	d="
M104.864014,222.141418 
	C107.020088,226.408539 110.576675,228.728546 115.077408,230.071213 
	C118.382492,231.057175 121.756866,232.080063 124.776779,233.692520 
	C129.873276,236.413727 129.731476,238.980011 124.348007,241.981506 
	C124.558060,238.106247 122.157913,236.555710 119.095123,235.059601 
	C114.762642,232.943253 110.477272,230.607056 106.574226,227.804367 
	C105.272980,226.869949 105.208565,224.213135 104.864014,222.141418 
z"/>
<path fill="#EEEBE1" opacity="1.000000" stroke="none" 
	d="
M316.762238,243.197693 
	C320.125977,249.323685 325.231689,251.713867 332.147766,250.995010 
	C337.110687,250.479156 342.111206,250.324646 347.524292,249.945465 
	C346.027954,251.251160 344.218109,253.543686 342.153168,253.802719 
	C337.439880,254.394028 332.595337,254.145203 327.815796,253.950684 
	C321.634247,253.699127 316.801849,249.057739 316.762238,243.197693 
z"/>
<path fill="#EEEBE1" opacity="1.000000" stroke="none" 
	d="
M289.922729,220.946259 
	C288.877716,219.662582 286.788330,217.596741 287.204193,216.405396 
	C287.725922,214.910660 290.299713,213.244812 291.991119,213.241333 
	C294.973480,213.235199 298.085724,214.110535 300.902069,215.226410 
	C303.178894,216.128525 304.886353,216.670639 306.601318,213.984177 
	C307.271606,216.714325 305.990051,218.185318 302.994354,217.979218 
	C300.871735,217.833176 298.717255,217.750290 296.649139,217.304428 
	C293.472473,216.619568 291.069031,217.122955 289.922729,220.946259 
z"/>
<path fill="#EEEBE1" opacity="1.000000" stroke="none" 
	d="
M118.895309,220.936859 
	C117.877647,219.663879 115.785957,217.554626 116.219154,216.364075 
	C116.764954,214.863998 119.495445,213.065552 121.067017,213.249008 
	C124.884888,213.694717 128.577667,215.212036 132.666473,216.488892 
	C131.082809,216.862366 129.151871,217.029144 127.224548,217.230362 
	C124.161095,217.550217 119.884300,214.824905 118.895309,220.936859 
z"/>
<path fill="#EEEBE1" opacity="1.000000" stroke="none" 
	d="
M190.089996,224.532806 
	C192.525421,223.517380 195.116989,222.210052 197.587082,222.409210 
	C200.162857,222.616898 204.529419,223.950668 204.770874,225.363342 
	C205.473541,229.474625 201.108963,227.475067 198.654846,228.551331 
	C197.073364,227.725571 196.010422,226.645111 194.722137,226.065491 
	C193.321518,225.435349 191.711502,225.270645 190.089996,224.532806 
z"/>
<path fill="#EEEBE1" opacity="1.000000" stroke="none" 
	d="
M189.118088,250.132736 
	C192.631866,249.829849 196.149323,250.008713 199.667831,250.033585 
	C203.522415,250.060837 207.377991,249.945938 211.623459,250.037659 
	C211.509689,250.759003 211.042801,251.797272 210.495773,251.841354 
	C204.607147,252.315933 198.708160,252.780823 192.806137,252.873428 
	C191.590637,252.892487 190.350830,251.362564 189.118088,250.132736 
z"/>
<path fill="#EEEBE1" opacity="1.000000" stroke="none" 
	d="
M354.937683,249.176514 
	C355.297607,252.368729 355.358002,255.746552 355.282379,259.564087 
	C354.976959,256.456573 354.807587,252.909348 354.937683,249.176514 
z"/>
<path fill="#EEEBE1" opacity="1.000000" stroke="none" 
	d="
M349.071716,238.919922 
	C348.690643,238.236328 348.569946,237.400497 348.605591,236.274094 
	C348.951965,236.911575 349.141998,237.839630 349.071716,238.919922 
z"/>
<path fill="#EEEBE1" opacity="1.000000" stroke="none" 
	d="
M349.062500,231.886658 
	C348.737366,231.180618 348.656891,230.347961 348.749054,229.242310 
	C349.050201,229.899536 349.178711,230.829773 349.062500,231.886658 
z"/>
<path fill="#6B6266" opacity="1.000000" stroke="none" 
	d="
M214.001114,206.978424 
	C214.335770,206.058105 214.930374,205.353333 216.162659,203.892731 
	C215.672546,205.621826 215.445374,206.423309 215.026443,207.387604 
	C214.643494,207.431580 214.452271,207.312775 214.001114,206.978424 
z"/>
<path fill="#EEEBE1" opacity="1.000000" stroke="none" 
	d="
M315.856934,239.107452 
	C316.300262,239.465683 316.511383,239.966507 316.682190,240.745758 
	C316.302826,240.432800 315.963745,239.841431 315.856934,239.107452 
z"/>
<path fill="#6B6266" opacity="1.000000" stroke="none" 
	d="
M366.887146,227.998154 
	C368.432129,222.346100 374.407593,220.126709 378.589691,224.249084 
	C380.810822,226.438477 381.493744,230.188370 382.454346,233.580139 
	C376.987488,231.950348 371.937317,229.974258 366.887146,227.998154 
z"/>
<path fill="#C45755" opacity="1.000000" stroke="none" 
	d="
M366.637878,228.114578 
	C371.937317,229.974258 376.987488,231.950348 382.387939,233.968521 
	C382.365448,235.304291 381.992706,236.597977 380.976379,238.020859 
	C376.926239,237.031982 373.573639,235.686371 370.097412,234.862167 
	C366.861359,234.094955 365.295135,232.506424 365.792267,229.141098 
	C365.991028,228.837723 366.189819,228.534363 366.637878,228.114578 
z"/>
<path fill="#EDE1C4" opacity="1.000000" stroke="none" 
	d="
M365.563599,229.438324 
	C365.295135,232.506424 366.861359,234.094955 370.097412,234.862167 
	C373.573639,235.686371 376.926239,237.031982 380.727661,238.263489 
	C379.925446,242.075302 377.184937,242.912170 373.787750,242.095291 
	C370.022552,241.189926 365.687744,240.785995 365.170197,235.622665 
	C364.975983,233.685272 365.265747,231.699356 365.563599,229.438324 
z"/>
<path fill="#6B6266" opacity="1.000000" stroke="none" 
	d="
M389.671967,244.004715 
	C391.367401,244.216858 392.770386,244.594421 394.542542,245.024231 
	C393.092560,246.513535 389.673340,246.887222 391.541260,251.138321 
	C395.046844,250.851456 398.798767,250.544434 402.550659,250.237427 
	C402.581787,250.623383 402.612885,251.009338 402.644012,251.395294 
	C399.160004,251.686966 395.676025,251.978622 391.771545,252.340149 
	C388.677094,251.491531 386.003113,250.573074 383.111694,249.359589 
	C385.055969,247.433090 387.217743,245.801620 389.671967,244.004715 
z"/>
<path fill="#EEEBE1" opacity="1.000000" stroke="none" 
	d="
M246.449890,229.152969 
	C244.705460,227.613617 243.396011,226.123199 242.060577,224.270569 
	C244.444260,223.498291 246.840790,222.947418 249.267578,222.721161 
	C251.341324,222.527832 253.557922,222.318878 255.504059,222.860992 
	C256.754456,223.209290 257.629425,224.905380 258.672699,225.997330 
	C257.515686,226.709290 256.438263,227.783493 255.185333,228.058807 
	C252.466080,228.656342 249.657135,228.845673 246.449890,229.152969 
z"/>
<path fill="#EEEBE1" opacity="1.000000" stroke="none" 
	d="
M248.185211,241.964783 
	C246.488373,239.374832 246.188019,236.780029 249.088379,236.024734 
	C251.904449,235.291367 255.064117,235.838028 258.060760,236.021255 
	C258.153931,236.026947 258.588898,238.550751 258.051208,239.360794 
	C255.731323,242.855972 252.673523,244.677078 248.185211,241.964783 
z"/>
<path fill="#EEEBE1" opacity="1.000000" stroke="none" 
	d="
M195.866486,242.865295 
	C193.468597,240.439270 192.356430,237.441589 195.616898,236.160660 
	C198.351715,235.086197 201.874725,235.997894 205.039017,236.190247 
	C205.098236,236.193848 205.438904,238.436295 204.960968,239.209106 
	C202.976639,242.417816 200.215088,244.266754 195.866486,242.865295 
z"/>
</svg>