<svg version="1.1" id="Layer_1" xmlns="http://www.w3.org/2000/svg" xmlns:xlink="http://www.w3.org/1999/xlink" x="0px" y="0px"
	 width="100%" viewBox="0 0 500 500" enable-background="new 0 0 500 500" xml:space="preserve">
<path fill="#FFFFFF" opacity="1.000000" stroke="none" 
	d="
M289.000000,501.000000 
	C192.666687,501.000000 96.833382,501.000000 1.000051,501.000000 
	C1.000034,334.333405 1.000034,167.666794 1.000017,1.000141 
	C167.666565,1.000094 334.333130,1.000094 500.999756,1.000047 
	C500.999847,167.666519 500.999847,334.333038 500.999939,500.999786 
	C430.500000,501.000000 360.000000,501.000000 289.000000,501.000000 
M85.677528,245.389404 
	C89.409721,241.988068 92.618507,226.539993 90.670288,221.352737 
	C88.634254,215.931671 90.206802,211.002487 95.575836,208.539566 
	C102.515808,205.356003 109.708282,202.707245 116.872971,200.046143 
	C117.941750,199.649170 119.452713,200.442795 120.759117,200.685623 
	C119.820076,201.612686 119.044289,202.932968 117.915009,203.401825 
	C111.521271,206.056290 105.042854,208.506821 97.549942,211.434464 
	C105.022156,213.920822 111.296814,216.100632 117.643661,218.044785 
	C118.948875,218.444611 120.626122,218.276962 121.958176,217.840576 
	C133.331650,214.114578 144.679398,210.307693 155.989456,206.393814 
	C157.190552,205.978180 158.100571,204.721375 159.145630,203.854797 
	C158.128250,203.148361 157.205917,202.164429 156.078796,201.778366 
	C144.760330,197.901291 133.432846,194.045471 122.039673,190.396698 
	C120.277657,189.832382 118.018967,189.868805 116.248627,190.435471 
	C105.159996,193.985031 94.132652,197.728607 83.119263,201.507736 
	C81.611191,202.025208 80.293495,203.097473 77.774803,204.558319 
	C82.135292,206.223663 85.144882,207.373062 88.421539,208.624466 
	C86.669785,213.192032 84.925163,217.438889 83.456520,221.779129 
	C83.081039,222.888779 83.590446,224.293167 83.672874,225.563477 
	C83.823044,227.877487 84.678970,230.459427 83.942383,232.449020 
	C82.593773,236.091751 80.300728,239.384842 77.967010,243.610474 
	C80.233788,244.296204 82.625908,245.019836 85.677528,245.389404 
M193.533173,231.202774 
	C198.670166,228.289139 201.351501,223.990967 200.381393,218.018143 
	C199.434189,212.186279 194.974701,210.018982 189.854050,208.830673 
	C186.620255,208.080231 183.180801,207.887009 180.168823,206.636444 
	C178.440979,205.919037 177.383163,203.587830 176.023712,201.983139 
	C177.732681,200.657501 179.723587,197.986404 181.094604,198.273697 
	C184.411072,198.968628 187.438400,201.043396 190.582291,202.561966 
	C190.430298,203.092407 190.278305,203.622849 190.126312,204.153290 
	C192.744156,203.480957 195.362015,202.808624 197.918427,202.152069 
	C196.065109,191.534027 183.175217,188.530319 174.143478,192.235977 
	C169.124329,194.295319 166.093903,198.928955 166.210907,203.871948 
	C166.327911,208.815277 169.046936,212.206055 174.941437,214.045990 
	C178.730240,215.228638 182.804169,215.565781 186.499420,216.951096 
	C188.302643,217.627121 189.532425,219.832748 191.021774,221.345993 
	C189.291550,222.882843 187.790817,225.235413 185.786835,225.799179 
	C180.395615,227.315918 176.900040,225.042068 173.078140,218.402039 
	C170.492966,218.956177 167.821808,219.528748 164.931961,220.148193 
	C165.939011,226.272736 169.219589,229.931091 174.374405,231.909836 
	C180.540787,234.276871 186.740723,233.986588 193.533173,231.202774 
M134.564880,234.154160 
	C145.171036,230.683838 146.599426,227.960236 144.420914,214.712708 
	C137.438995,217.026413 130.588608,219.559525 123.572128,221.488510 
	C120.874741,222.230072 117.630104,222.210190 114.928886,221.467590 
	C108.098160,219.589737 101.434204,217.105255 93.800209,214.563004 
	C94.844315,220.022873 95.730354,224.656158 96.950363,231.035843 
	C107.527649,237.511276 120.484802,237.387970 134.564880,234.154160 
M391.752136,232.893921 
	C391.828766,231.500534 391.905396,230.107162 391.996552,228.450302 
	C399.286591,234.152649 405.575317,234.230713 410.424133,228.970291 
	C415.431671,223.537598 415.835693,212.324005 410.708252,206.849197 
	C408.813110,204.825729 405.611145,202.721039 403.122528,202.853760 
	C399.033447,203.071808 395.040070,205.084106 390.989807,206.345016 
	C389.837830,202.434250 389.709900,202.377960 382.982452,203.970474 
	C382.982452,210.506256 382.982452,217.133301 382.982452,223.760361 
	C382.982452,230.348145 382.982452,236.935944 382.982452,243.527802 
	C386.219086,243.527802 388.772125,243.527802 391.751801,243.527802 
	C391.751801,240.041489 391.751801,236.913010 391.752136,232.893921 
M298.202911,214.991852 
	C295.296967,215.631317 292.294159,215.995560 289.508270,216.976105 
	C285.538605,218.373291 283.041107,221.252945 283.667511,225.712891 
	C284.329163,230.424225 287.878387,232.825470 292.097198,232.670563 
	C296.150421,232.521759 300.146515,230.816223 304.733826,229.650925 
	C307.058197,233.093430 311.079895,233.993378 315.757965,231.819260 
	C316.653259,231.403152 317.719849,230.276611 317.774475,229.418427 
	C317.835388,228.462280 316.801758,226.562820 316.294556,226.579636 
	C311.353149,226.743622 313.020233,223.124268 312.826202,220.708038 
	C312.640289,218.393158 312.898010,216.043457 312.725800,213.726517 
	C312.246826,207.281830 308.332886,203.310547 301.616364,202.274994 
	C294.348358,201.154419 287.289062,204.299255 285.121948,209.714218 
	C284.792694,210.536911 284.912140,211.539169 284.828735,212.409180 
	C288.935669,213.369751 292.578217,214.865555 295.392944,210.124512 
	C296.083160,208.961990 299.616608,209.171906 301.786530,209.369568 
	C302.578247,209.441681 303.206085,211.312683 303.908691,212.362991 
	C302.285156,213.216599 300.661621,214.070221 298.202911,214.991852 
M248.713074,202.145950 
	C239.971451,203.516098 236.798431,206.103271 236.307632,212.385269 
	C240.077576,213.511383 243.646683,214.872894 246.462570,210.166534 
	C247.127792,209.054718 250.135132,208.790497 251.905914,209.086960 
	C253.102676,209.287338 254.020706,211.152603 255.063431,212.273178 
	C253.994141,213.069595 253.029907,214.281006 251.835526,214.583359 
	C248.471954,215.434891 244.900177,215.560364 241.618774,216.618195 
	C236.371994,218.309631 234.037125,221.958206 235.078140,226.316925 
	C236.242722,231.193069 240.158600,233.094360 244.499786,232.735092 
	C248.254913,232.424316 251.883545,230.584717 255.859970,229.328720 
	C259.774597,233.898560 263.075409,234.283249 270.059631,229.723251 
	C268.127319,228.098785 266.446381,226.685654 263.946930,224.584412 
	C263.946930,222.858322 263.951965,219.880966 263.946014,216.903641 
	C263.925232,206.487396 260.211609,202.669357 248.713074,202.145950 
M370.007019,204.883698 
	C369.979309,209.541580 370.108765,214.207397 369.873932,218.854828 
	C369.687805,222.539093 368.026703,225.388901 363.824310,225.360855 
	C359.450287,225.331696 358.962982,222.171524 358.976990,218.748520 
	C358.997803,213.663040 358.982361,208.577423 358.982361,203.540588 
	C355.646606,203.540588 353.091095,203.540588 350.230042,203.540588 
	C350.230042,210.714233 349.897552,217.528915 350.323700,224.295837 
	C350.748322,231.038666 356.850769,234.642136 363.375244,232.262634 
	C365.635193,231.438416 367.582245,229.756241 369.898254,228.326385 
	C370.912842,233.525024 374.720367,232.093918 378.314209,231.711411 
	C378.314209,222.155151 378.314209,212.802551 378.314209,203.189011 
	C375.900574,203.189011 373.913849,203.128860 371.934845,203.225967 
	C371.348328,203.254761 370.783478,203.726379 370.007019,204.883698 
M224.004578,222.542831 
	C220.207886,226.611176 216.299438,227.125244 213.426056,223.934174 
	C210.397873,220.571198 210.653183,213.410965 213.897781,210.704788 
	C217.154053,207.988846 220.777191,209.366577 224.346222,214.911072 
	C226.559326,214.265656 228.869675,213.591888 231.149033,212.927139 
	C229.378418,205.166168 222.590424,200.940033 214.793503,202.324554 
	C206.605392,203.778503 201.474548,211.008499 202.569031,219.550262 
	C203.732346,228.629211 210.041321,233.591446 219.681335,233.009705 
	C227.178833,232.557266 232.481369,227.473679 232.440155,220.440109 
	C229.722687,221.085327 226.462021,217.375504 224.004578,222.542831 
M331.379791,213.500092 
	C330.318481,212.475769 329.257172,211.451447 328.195862,210.427109 
	C329.543671,209.619263 330.818634,208.373154 332.260864,208.133408 
	C333.565002,207.916641 335.736267,208.351517 336.339630,209.274277 
	C338.951813,213.269180 341.922943,211.310654 344.992004,210.545654 
	C343.608337,205.186295 340.163025,202.663589 333.918518,202.217010 
	C328.188751,201.807251 322.887848,204.330872 321.170319,208.286072 
	C319.257416,212.691223 321.018341,217.269028 325.599915,218.838577 
	C328.566772,219.854919 331.836975,219.986740 334.802185,221.006485 
	C336.404999,221.557678 337.652771,223.141235 339.060730,224.259048 
	C337.480103,225.199387 335.932251,226.826141 334.310394,226.903625 
	C332.350098,226.997330 329.394836,226.384552 328.505066,225.015198 
	C325.772247,220.809616 322.687195,222.682648 319.434875,223.326248 
	C320.702759,229.206024 324.043091,232.116531 330.145386,232.887283 
	C337.743744,233.847031 344.285706,231.418411 346.428711,226.842361 
	C348.516846,222.383453 347.040924,217.974274 342.316956,216.163925 
	C339.096283,214.929718 335.555450,214.530945 331.379791,213.500092 
M271.973572,200.533417 
	C271.973572,210.960602 271.973572,221.387787 271.973572,231.627762 
	C275.297211,231.627762 277.867126,231.627762 280.346191,231.627762 
	C280.346191,217.669113 280.346191,204.111267 280.346191,190.661545 
	C277.351685,190.661545 274.786346,190.661545 271.973572,190.661545 
	C271.973572,193.900589 271.973572,196.724945 271.973572,200.533417 
z"/>
<path fill="#FCC02E" opacity="1.000000" stroke="none" 
	d="
M85.347778,245.566437 
	C82.625908,245.019836 80.233788,244.296204 77.967010,243.610474 
	C80.300728,239.384842 82.593773,236.091751 83.942383,232.449020 
	C84.678970,230.459427 83.823044,227.877487 83.672874,225.563477 
	C83.590446,224.293167 83.081039,222.888779 83.456520,221.779129 
	C84.925163,217.438889 86.669785,213.192032 88.421539,208.624466 
	C85.144882,207.373062 82.135292,206.223663 77.774803,204.558319 
	C80.293495,203.097473 81.611191,202.025208 83.119263,201.507736 
	C94.132652,197.728607 105.159996,193.985031 116.248627,190.435471 
	C118.018967,189.868805 120.277657,189.832382 122.039673,190.396698 
	C133.432846,194.045471 144.760330,197.901291 156.078796,201.778366 
	C157.205917,202.164429 158.128250,203.148361 159.145630,203.854797 
	C158.100571,204.721375 157.190552,205.978180 155.989456,206.393814 
	C144.679398,210.307693 133.331650,214.114578 121.958176,217.840576 
	C120.626122,218.276962 118.948875,218.444611 117.643661,218.044785 
	C111.296814,216.100632 105.022156,213.920822 97.549942,211.434464 
	C105.042854,208.506821 111.521271,206.056290 117.915009,203.401825 
	C119.044289,202.932968 119.820076,201.612686 120.759117,200.685623 
	C119.452713,200.442795 117.941750,199.649170 116.872971,200.046143 
	C109.708282,202.707245 102.515808,205.356003 95.575836,208.539566 
	C90.206802,211.002487 88.634254,215.931671 90.670288,221.352737 
	C92.618507,226.539993 89.409721,241.988068 85.347778,245.566437 
z"/>
<path fill="#FCC02E" opacity="1.000000" stroke="none" 
	d="
M193.196396,231.383408 
	C186.740723,233.986588 180.540787,234.276871 174.374405,231.909836 
	C169.219589,229.931091 165.939011,226.272736 164.931961,220.148193 
	C167.821808,219.528748 170.492966,218.956177 173.078140,218.402039 
	C176.900040,225.042068 180.395615,227.315918 185.786835,225.799179 
	C187.790817,225.235413 189.291550,222.882843 191.021774,221.345993 
	C189.532425,219.832748 188.302643,217.627121 186.499420,216.951096 
	C182.804169,215.565781 178.730240,215.228638 174.941437,214.045990 
	C169.046936,212.206055 166.327911,208.815277 166.210907,203.871948 
	C166.093903,198.928955 169.124329,194.295319 174.143478,192.235977 
	C183.175217,188.530319 196.065109,191.534027 197.918427,202.152069 
	C195.362015,202.808624 192.744156,203.480957 190.126312,204.153290 
	C190.278305,203.622849 190.430298,203.092407 190.582291,202.561966 
	C187.438400,201.043396 184.411072,198.968628 181.094604,198.273697 
	C179.723587,197.986404 177.732681,200.657501 176.023712,201.983139 
	C177.383163,203.587830 178.440979,205.919037 180.168823,206.636444 
	C183.180801,207.887009 186.620255,208.080231 189.854050,208.830673 
	C194.974701,210.018982 199.434189,212.186279 200.381393,218.018143 
	C201.351501,223.990967 198.670166,228.289139 193.196396,231.383408 
z"/>
<path fill="#FCBF2C" opacity="1.000000" stroke="none" 
	d="
M134.183014,234.283813 
	C120.484802,237.387970 107.527649,237.511276 96.950363,231.035843 
	C95.730354,224.656158 94.844315,220.022873 93.800209,214.563004 
	C101.434204,217.105255 108.098160,219.589737 114.928886,221.467590 
	C117.630104,222.210190 120.874741,222.230072 123.572128,221.488510 
	C130.588608,219.559525 137.438995,217.026413 144.420914,214.712708 
	C146.599426,227.960236 145.171036,230.683838 134.183014,234.283813 
z"/>
<path fill="#FCC02F" opacity="1.000000" stroke="none" 
	d="
M391.751953,233.339233 
	C391.751801,236.913010 391.751801,240.041489 391.751801,243.527802 
	C388.772125,243.527802 386.219086,243.527802 382.982452,243.527802 
	C382.982452,236.935944 382.982452,230.348145 382.982452,223.760361 
	C382.982452,217.133301 382.982452,210.506256 382.982452,203.970474 
	C389.709900,202.377960 389.837830,202.434250 390.989807,206.345016 
	C395.040070,205.084106 399.033447,203.071808 403.122528,202.853760 
	C405.611145,202.721039 408.813110,204.825729 410.708252,206.849197 
	C415.835693,212.324005 415.431671,223.537598 410.424133,228.970291 
	C405.575317,234.230713 399.286591,234.152649 391.996552,228.450302 
	C391.905396,230.107162 391.828766,231.500534 391.751953,233.339233 
M404.775574,213.845078 
	C400.779205,208.832153 395.460938,208.510971 392.605133,213.183838 
	C390.441650,216.723938 390.390411,220.655838 393.664124,223.093536 
	C395.647614,224.570511 399.524017,225.272125 401.698822,224.338791 
	C405.608032,222.661148 406.514526,218.724777 404.775574,213.845078 
z"/>
<path fill="#FCC131" opacity="1.000000" stroke="none" 
	d="
M298.620514,214.957840 
	C300.661621,214.070221 302.285156,213.216599 303.908691,212.363007 
	C303.206085,211.312683 302.578247,209.441681 301.786530,209.369568 
	C299.616608,209.171906 296.083160,208.961990 295.392944,210.124512 
	C292.578217,214.865555 288.935669,213.369751 284.828735,212.409180 
	C284.912140,211.539169 284.792694,210.536911 285.121948,209.714218 
	C287.289062,204.299255 294.348358,201.154419 301.616364,202.274994 
	C308.332886,203.310547 312.246826,207.281830 312.725800,213.726517 
	C312.898010,216.043457 312.640289,218.393158 312.826202,220.708038 
	C313.020233,223.124268 311.353149,226.743622 316.294556,226.579636 
	C316.801758,226.562820 317.835388,228.462280 317.774475,229.418427 
	C317.719849,230.276611 316.653259,231.403152 315.757965,231.819260 
	C311.079895,233.993378 307.058197,233.093430 304.733826,229.650925 
	C300.146515,230.816223 296.150421,232.521759 292.097198,232.670563 
	C287.878387,232.825470 284.329163,230.424225 283.667511,225.712891 
	C283.041107,221.252945 285.538605,218.373291 289.508270,216.976105 
	C292.294159,215.995560 295.296967,215.631317 298.620514,214.957840 
M295.896576,226.854538 
	C301.947113,226.460983 303.910858,224.499741 303.308167,219.217804 
	C300.878693,219.540268 298.365662,219.585541 296.052246,220.288177 
	C294.646240,220.715240 293.548553,222.157318 292.312378,223.143448 
	C293.257996,224.314529 294.203613,225.485611 295.896576,226.854538 
z"/>
<path fill="#FCC030" opacity="1.000000" stroke="none" 
	d="
M249.141418,202.131226 
	C260.211609,202.669357 263.925232,206.487396 263.946014,216.903641 
	C263.951965,219.880966 263.946930,222.858322 263.946930,224.584412 
	C266.446381,226.685654 268.127319,228.098785 270.059631,229.723251 
	C263.075409,234.283249 259.774597,233.898560 255.859970,229.328720 
	C251.883545,230.584717 248.254913,232.424316 244.499786,232.735092 
	C240.158600,233.094360 236.242722,231.193069 235.078140,226.316925 
	C234.037125,221.958206 236.371994,218.309631 241.618774,216.618195 
	C244.900177,215.560364 248.471954,215.434891 251.835526,214.583359 
	C253.029907,214.281006 253.994141,213.069595 255.063416,212.273163 
	C254.020706,211.152603 253.102676,209.287338 251.905914,209.086960 
	C250.135132,208.790497 247.127792,209.054718 246.462570,210.166534 
	C243.646683,214.872894 240.077576,213.511383 236.307632,212.385269 
	C236.798431,206.103271 239.971451,203.516098 249.141418,202.131226 
M243.877899,222.732880 
	C243.663712,227.008774 246.677673,227.253250 249.527466,226.735992 
	C253.324234,226.046860 255.499908,223.734314 254.676788,218.437347 
	C250.860703,219.736099 247.539658,220.866364 243.877899,222.732880 
z"/>
<path fill="#FCC234" opacity="1.000000" stroke="none" 
	d="
M370.107849,204.439392 
	C370.783478,203.726379 371.348328,203.254761 371.934845,203.225967 
	C373.913849,203.128860 375.900574,203.189011 378.314209,203.189011 
	C378.314209,212.802551 378.314209,222.155151 378.314209,231.711411 
	C374.720367,232.093918 370.912842,233.525024 369.898254,228.326385 
	C367.582245,229.756241 365.635193,231.438416 363.375244,232.262634 
	C356.850769,234.642136 350.748322,231.038666 350.323700,224.295837 
	C349.897552,217.528915 350.230042,210.714233 350.230042,203.540588 
	C353.091095,203.540588 355.646606,203.540588 358.982361,203.540588 
	C358.982361,208.577423 358.997803,213.663040 358.976990,218.748520 
	C358.962982,222.171524 359.450287,225.331696 363.824310,225.360855 
	C368.026703,225.388901 369.687805,222.539093 369.873932,218.854828 
	C370.108765,214.207397 369.979309,209.541580 370.107849,204.439392 
z"/>
<path fill="#FCC02F" opacity="1.000000" stroke="none" 
	d="
M224.155441,222.207092 
	C226.462021,217.375504 229.722687,221.085327 232.440155,220.440109 
	C232.481369,227.473679 227.178833,232.557266 219.681335,233.009705 
	C210.041321,233.591446 203.732346,228.629211 202.569031,219.550262 
	C201.474548,211.008499 206.605392,203.778503 214.793503,202.324554 
	C222.590424,200.940033 229.378418,205.166168 231.149033,212.927139 
	C228.869675,213.591888 226.559326,214.265656 224.346222,214.911072 
	C220.777191,209.366577 217.154053,207.988846 213.897781,210.704788 
	C210.653183,213.410965 210.397873,220.571198 213.426056,223.934174 
	C216.299438,227.125244 220.207886,226.611176 224.155441,222.207092 
z"/>
<path fill="#FCC131" opacity="1.000000" stroke="none" 
	d="
M331.768799,213.629364 
	C335.555450,214.530945 339.096283,214.929718 342.316956,216.163925 
	C347.040924,217.974274 348.516846,222.383453 346.428711,226.842361 
	C344.285706,231.418411 337.743744,233.847031 330.145386,232.887283 
	C324.043091,232.116531 320.702759,229.206024 319.434875,223.326248 
	C322.687195,222.682648 325.772247,220.809616 328.505066,225.015198 
	C329.394836,226.384552 332.350098,226.997330 334.310394,226.903625 
	C335.932251,226.826141 337.480103,225.199387 339.060730,224.259048 
	C337.652771,223.141235 336.404999,221.557678 334.802185,221.006485 
	C331.836975,219.986740 328.566772,219.854919 325.599915,218.838577 
	C321.018341,217.269028 319.257416,212.691223 321.170319,208.286072 
	C322.887848,204.330872 328.188751,201.807251 333.918518,202.217010 
	C340.163025,202.663589 343.608337,205.186295 344.992004,210.545654 
	C341.922943,211.310654 338.951813,213.269180 336.339630,209.274277 
	C335.736267,208.351517 333.565002,207.916641 332.260864,208.133408 
	C330.818634,208.373154 329.543671,209.619263 328.195862,210.427124 
	C329.257172,211.451447 330.318481,212.475769 331.768799,213.629364 
z"/>
<path fill="#FCC234" opacity="1.000000" stroke="none" 
	d="
M271.973572,200.041367 
	C271.973572,196.724945 271.973572,193.900589 271.973572,190.661545 
	C274.786346,190.661545 277.351685,190.661545 280.346191,190.661545 
	C280.346191,204.111267 280.346191,217.669113 280.346191,231.627762 
	C277.867126,231.627762 275.297211,231.627762 271.973572,231.627762 
	C271.973572,221.387787 271.973572,210.960602 271.973572,200.041367 
z"/>
<path fill="#FFFDF8" opacity="1.000000" stroke="none" 
	d="
M404.916321,214.201584 
	C406.514526,218.724777 405.608032,222.661148 401.698822,224.338791 
	C399.524017,225.272125 395.647614,224.570511 393.664124,223.093536 
	C390.390411,220.655838 390.441650,216.723938 392.605133,213.183838 
	C395.460938,208.510971 400.779205,208.832153 404.916321,214.201584 
z"/>
<path fill="#FFFBF0" opacity="1.000000" stroke="none" 
	d="
M295.522888,226.755615 
	C294.203613,225.485611 293.257996,224.314529 292.312378,223.143433 
	C293.548553,222.157318 294.646240,220.715240 296.052246,220.288177 
	C298.365662,219.585541 300.878693,219.540268 303.308167,219.217804 
	C303.910858,224.499741 301.947113,226.460983 295.522888,226.755615 
z"/>
<path fill="#FFFBF0" opacity="1.000000" stroke="none" 
	d="
M244.048248,222.364746 
	C247.539658,220.866364 250.860703,219.736099 254.676788,218.437347 
	C255.499908,223.734314 253.324234,226.046860 249.527466,226.735992 
	C246.677673,227.253250 243.663712,227.008774 244.048248,222.364746 
z"/>
</svg>